<?xml version="1.0" encoding="UTF-8" standalone="no"?>
<!-- Generated by Pixelmator Pro 3.6.9 -->

<svg
   width="690"
   height="690"
   viewBox="0 0 690 690"
   version="1.1"
   id="svg25"
   sodipodi:docname="logo.svg"
   inkscape:version="1.2.2 (b0a8486541, 2022-12-01)"
   xmlns:inkscape="http://www.inkscape.org/namespaces/inkscape"
   xmlns:sodipodi="http://sodipodi.sourceforge.net/DTD/sodipodi-0.dtd"
   xmlns="http://www.w3.org/2000/svg"
   xmlns:svg="http://www.w3.org/2000/svg">
  <defs
     id="defs29" />
  <sodipodi:namedview
     id="namedview27"
     pagecolor="#ffffff"
     bordercolor="#000000"
     borderopacity="0.25"
     inkscape:showpageshadow="2"
     inkscape:pageopacity="0.0"
     inkscape:pagecheckerboard="0"
     inkscape:deskcolor="#d1d1d1"
     showgrid="false"
     inkscape:zoom="0.65186406"
     inkscape:cx="346.69805"
     inkscape:cy="479.39443"
     inkscape:window-width="1920"
     inkscape:window-height="1128"
     inkscape:window-x="0"
     inkscape:window-y="0"
     inkscape:window-maximized="1"
     inkscape:current-layer="svg25" />
  <linearGradient
     id="linearGradient1"
     x1="184.22502"
     y1="245.76491"
     x2="764.92291"
     y2="826.46283"
     gradientUnits="userSpaceOnUse"
     gradientTransform="translate(-193.55552,-129.3335)">
    <stop
       offset="0.00286"
       stop-color="#2469fe"
       stop-opacity="1"
       id="stop9" />
    <stop
       offset="1"
       stop-color="#065ee2"
       stop-opacity="1"
       id="stop11" />
    <stop
       offset="1"
       stop-color="#0e85b8"
       stop-opacity="1"
       id="stop13" />
    <stop
       offset="1"
       stop-color="#15a396"
       stop-opacity="1"
       id="stop15" />
    <stop
       offset="1"
       stop-color="#1ab97f"
       stop-opacity="1"
       id="stop17" />
    <stop
       offset="1"
       stop-color="#1dc670"
       stop-opacity="1"
       id="stop19" />
    <stop
       offset="1"
       stop-color="#173ae1"
       stop-opacity="1"
       id="stop21" />
  </linearGradient>
  <path
     id="Percorso"
     fill="url(#linearGradient1)"
     stroke="none"
     d="M 535.29562,688.88917 H 294.40709 c -63.32955,0 -114.8515,-51.52247 -114.8515,-114.85254 V 544.59229 H 162.8515 C 99.52195,544.59229 48,493.06983 48,429.74073 V 100.77735 C 48,45.208496 93.208473,0 148.77778,0 204.34659,0 249.55555,45.208496 249.55555,100.77735 v 373.81494 h 285.74007 c 59.082,0 107.14838,48.06641 107.14838,107.14844 0,59.08203 -48.06638,107.14844 -107.14838,107.14844 z M 249.55555,544.59229 v 29.44434 c 0,24.73144 20.1201,44.85254 44.85154,44.85254 h 240.88853 c 20.48339,0 37.14842,-16.66504 37.14842,-37.14844 0,-20.4834 -16.66503,-37.14844 -37.14842,-37.14844 z M 148.77778,70.000006 c -16.97119,0 -30.77782,13.80664 -30.77782,30.777344 v 328.96338 c 0,24.73144 20.12011,44.85156 44.85154,44.85156 h 16.70409 V 100.77735 c 0,-16.970704 -13.80663,-30.777344 -30.77781,-30.777344 z"
     style="fill:url(#linearGradient1)" />
</svg>
